<mxfile host="app.diagrams.net" modified="2022-10-10T20:47:48.585Z" agent="5.0 (Macintosh; Intel Mac OS X 10_15_7) AppleWebKit/605.1.15 (KHTML, like Gecko) Version/15.4 Safari/605.1.15" etag="uD4ZycUETQYMPnT1slW7" version="20.4.0" type="github">
  <diagram id="frIT_qF8VG28gHsbIbNF" name="Страница 1">
    <mxGraphModel dx="946" dy="558" grid="1" gridSize="10" guides="1" tooltips="1" connect="1" arrows="1" fold="1" page="1" pageScale="1" pageWidth="827" pageHeight="1169" math="0" shadow="0">
      <root>
        <mxCell id="0" />
        <mxCell id="1" parent="0" />
        <mxCell id="InXrjn-0GmQ0fm0X3MN4-1" value="Источник-ссылка&lt;br&gt;&lt;i&gt;https://vk.com/public165829339&lt;/i&gt;" style="text;html=1;strokeColor=none;fillColor=none;align=center;verticalAlign=middle;whiteSpace=wrap;rounded=0;" vertex="1" parent="1">
          <mxGeometry x="180" y="330" width="120" height="30" as="geometry" />
        </mxCell>
        <mxCell id="InXrjn-0GmQ0fm0X3MN4-2" value="Категория источника&lt;br&gt;&lt;i&gt;vk&lt;/i&gt;" style="text;html=1;strokeColor=none;fillColor=none;align=center;verticalAlign=middle;whiteSpace=wrap;rounded=0;fontColor=#B3B3B3;" vertex="1" parent="1">
          <mxGeometry x="170" y="410" width="130" height="30" as="geometry" />
        </mxCell>
        <mxCell id="InXrjn-0GmQ0fm0X3MN4-3" value="Событие" style="text;html=1;strokeColor=none;fillColor=none;align=center;verticalAlign=middle;whiteSpace=wrap;rounded=0;fontColor=#000000;" vertex="1" parent="1">
          <mxGeometry x="210" y="210" width="60" height="30" as="geometry" />
        </mxCell>
      </root>
    </mxGraphModel>
  </diagram>
</mxfile>
